<svg width="744" height="1094" viewBox="0 0 744 1094" fill="none" xmlns="http://www.w3.org/2000/svg">
<path d="M117.8 569.986C110.3 570.664 105.992 571.287 103.346 573.345C100.237 575.756 99.5012 580.17 98.6831 589C97.8377 579.845 97.0741 575.458 93.6653 573.101C91.02 571.259 86.7386 570.664 79.5664 570.014C87.0385 569.336 91.3746 568.713 93.9925 566.682C97.1287 564.244 97.865 559.857 98.6831 551C99.4466 559.153 100.128 563.513 102.665 566.032C105.201 568.551 109.619 569.255 117.8 569.986Z" fill="white"/>
<path d="M89.6267 479.072C86.3204 485.468 84.4936 488.657 82.6517 488.657C80.8098 488.657 78.983 485.468 75.6918 479.072C78.983 485.468 80.5532 488.843 79.6322 490.615C78.7113 492.387 75.3144 492.572 68.7168 492.572C75.5559 492.572 78.9528 492.758 79.7228 494.715C80.4475 496.538 78.8773 499.896 75.6918 506.072C78.9981 499.677 80.8249 496.487 82.6668 496.487C84.5087 496.487 86.3355 499.677 89.6418 506.072C86.1392 499.272 84.5993 495.897 85.8976 494.209C87.045 492.724 90.4269 492.572 96.6168 492.572C89.6418 492.572 86.2449 492.37 85.5655 490.294C84.9465 488.438 86.5166 485.097 89.6267 479.072Z" fill="white"/>
<g clip-path="url(#clip0_73_4818)">
<path d="M1097.5 -170.076C1085.81 -123.923 1053.11 -85.3751 1003.9 -55.1982C954.68 -25.0197 888.978 -3.23243 811.371 9.39557C656.157 34.6513 453.417 23.2553 239.95 -30.8016C26.4836 -84.8585 -157.245 -171.329 -281.731 -267.414C-343.975 -315.458 -391.388 -365.889 -420.309 -415.855C-449.229 -465.818 -459.643 -515.284 -447.956 -561.437C-436.268 -607.59 -403.566 -646.137 -354.352 -676.314C-305.136 -706.493 -239.434 -728.28 -161.827 -740.908C-6.61316 -766.164 196.127 -754.768 409.594 -700.711C623.06 -646.654 806.789 -560.183 931.275 -464.098C993.519 -416.055 1040.93 -365.623 1069.85 -315.658C1098.77 -265.695 1109.19 -216.228 1097.5 -170.076Z" stroke="url(#paint0_linear_73_4818)"/>
<path d="M1390.8 -95.8028C1374.66 -32.0819 1329.51 21.1243 1261.6 62.7656C1193.69 104.409 1103.04 134.466 995.981 151.887C781.86 186.728 502.188 171.005 207.729 96.4386C-86.7293 21.8718 -340.176 -97.4092 -511.908 -229.961C-597.774 -296.238 -663.192 -365.817 -703.1 -434.764C-743.007 -503.708 -757.39 -571.989 -741.254 -635.71C-725.117 -699.431 -679.969 -752.637 -612.059 -794.279C-544.146 -835.922 -453.497 -865.979 -346.435 -883.4C-132.314 -918.241 147.357 -902.518 441.816 -827.952C736.275 -753.385 989.722 -634.104 1161.45 -501.552C1247.32 -435.275 1312.74 -365.696 1352.65 -296.749C1392.55 -227.805 1406.94 -159.524 1390.8 -95.8028Z" stroke="url(#paint1_linear_73_4818)"/>
</g>
<defs>
<linearGradient id="paint0_linear_73_4818" x1="-394.282" y1="-588.091" x2="944.257" y2="-32.7795" gradientUnits="userSpaceOnUse">
<stop stop-color="#484848"/>
<stop offset="0.491388" stop-color="#484848" stop-opacity="0.36"/>
<stop offset="1" stop-color="#484848"/>
</linearGradient>
<linearGradient id="paint1_linear_73_4818" x1="-667.036" y1="-672.428" x2="1179.24" y2="93.5265" gradientUnits="userSpaceOnUse">
<stop stop-color="#484848"/>
<stop offset="0.491388" stop-color="#484848" stop-opacity="0.36"/>
<stop offset="1" stop-color="#484848"/>
</linearGradient>
<clipPath id="clip0_73_4818">
<rect width="1440" height="426" fill="white" transform="translate(-295)"/>
</clipPath>
</defs>
</svg>
