<svg width="375" height="716" viewBox="0 0 375 716" fill="none" xmlns="http://www.w3.org/2000/svg">
<path d="M78.1045 509.986C70.6509 510.664 66.3684 511.287 63.7393 513.345C60.6494 515.756 59.9176 520.17 59.1045 529C58.2643 519.845 57.5053 515.458 54.1173 513.101C51.4882 511.259 47.2329 510.664 40.1045 510.014C47.531 509.336 51.8406 508.713 54.4426 506.682C57.5596 504.244 58.2914 499.857 59.1045 491C59.8634 499.153 60.541 503.513 63.0617 506.032C65.5824 508.551 69.9732 509.255 78.1045 509.986Z" fill="white"/>
<path d="M54.8711 419.072C51.6715 425.468 49.9036 428.657 48.1211 428.657C46.3387 428.657 44.5708 425.468 41.3857 419.072C44.5708 425.468 46.0903 428.843 45.1991 430.615C44.3078 432.387 41.0205 432.572 34.6357 432.572C41.2542 432.572 44.5416 432.758 45.2867 434.715C45.988 436.538 44.4685 439.896 41.3857 446.072C44.5854 439.677 46.3533 436.487 48.1357 436.487C49.9182 436.487 51.6861 439.677 54.8857 446.072C51.4961 439.272 50.0059 435.897 51.2624 434.209C52.3728 432.724 55.6455 432.572 61.6357 432.572C54.8857 432.572 51.5984 432.37 50.9409 430.294C50.3419 428.438 51.8614 425.097 54.8711 419.072Z" fill="white"/>
<g clip-path="url(#clip0_73_5768)">
<path d="M1151.5 -170.076C1139.81 -123.923 1107.11 -85.3751 1057.9 -55.1982C1008.68 -25.0197 942.978 -3.23243 865.371 9.39557C710.157 34.6513 507.417 23.2553 293.95 -30.8016C80.4836 -84.8585 -103.245 -171.329 -227.731 -267.414C-289.975 -315.458 -337.388 -365.889 -366.309 -415.855C-395.229 -465.818 -405.643 -515.284 -393.956 -561.437C-382.268 -607.59 -349.566 -646.137 -300.352 -676.314C-251.136 -706.493 -185.434 -728.28 -107.827 -740.908C47.3868 -766.164 250.127 -754.768 463.594 -700.711C677.06 -646.654 860.789 -560.183 985.275 -464.098C1047.52 -416.055 1094.93 -365.623 1123.85 -315.658C1152.77 -265.695 1163.19 -216.228 1151.5 -170.076Z" stroke="url(#paint0_linear_73_5768)"/>
<path d="M1444.8 -95.8028C1428.66 -32.0819 1383.51 21.1243 1315.6 62.7656C1247.69 104.409 1157.04 134.466 1049.98 151.887C835.86 186.728 556.188 171.005 261.729 96.4386C-32.7293 21.8718 -286.176 -97.4092 -457.908 -229.961C-543.774 -296.238 -609.192 -365.817 -649.1 -434.764C-689.007 -503.708 -703.39 -571.989 -687.254 -635.71C-671.117 -699.431 -625.969 -752.637 -558.059 -794.279C-490.146 -835.922 -399.497 -865.979 -292.435 -883.4C-78.3141 -918.241 201.357 -902.518 495.816 -827.952C790.275 -753.385 1043.72 -634.104 1215.45 -501.552C1301.32 -435.275 1366.74 -365.696 1406.65 -296.749C1446.55 -227.805 1460.94 -159.524 1444.8 -95.8028Z" stroke="url(#paint1_linear_73_5768)"/>
</g>
<defs>
<linearGradient id="paint0_linear_73_5768" x1="-340.282" y1="-588.091" x2="998.257" y2="-32.7795" gradientUnits="userSpaceOnUse">
<stop stop-color="#484848"/>
<stop offset="0.491388" stop-color="#484848" stop-opacity="0.36"/>
<stop offset="1" stop-color="#484848"/>
</linearGradient>
<linearGradient id="paint1_linear_73_5768" x1="-613.036" y1="-672.428" x2="1233.24" y2="93.5265" gradientUnits="userSpaceOnUse">
<stop stop-color="#484848"/>
<stop offset="0.491388" stop-color="#484848" stop-opacity="0.36"/>
<stop offset="1" stop-color="#484848"/>
</linearGradient>
<clipPath id="clip0_73_5768">
<rect width="811" height="426" fill="white" transform="translate(-241)"/>
</clipPath>
</defs>
</svg>
