<svg width="744" height="562" viewBox="0 0 744 562" fill="none" xmlns="http://www.w3.org/2000/svg">
<g clip-path="url(#clip0_73_5185)">
<g filter="url(#filter0_f_73_5185)">
<ellipse cx="177.622" cy="643.135" rx="298.201" ry="297.963" transform="rotate(-90 177.622 643.135)" fill="url(#paint0_linear_73_5185)"/>
</g>
<g filter="url(#filter1_f_73_5185)">
<rect x="155.093" y="786.416" width="286.564" height="406.247" transform="rotate(-90 155.093 786.416)" fill="url(#paint1_linear_73_5185)"/>
</g>
<path opacity="0.3" d="M57 458.636C57 458.17 57.1136 457.746 57.3409 457.362C57.5682 456.979 57.8736 456.673 58.2571 456.446C58.6406 456.219 59.0653 456.105 59.5312 456.105C59.9347 456.105 60.3068 456.192 60.6477 456.365C60.9915 456.538 61.2756 456.776 61.5 457.077C61.7244 457.375 61.8636 457.713 61.9176 458.091H60.8864C60.8295 457.798 60.6719 457.56 60.4134 457.375C60.1548 457.188 59.8608 457.094 59.5312 457.094C59.2472 457.094 58.9886 457.163 58.7557 457.303C58.5227 457.442 58.3366 457.628 58.1974 457.861C58.0582 458.094 57.9886 458.352 57.9886 458.636C57.9886 458.92 58.0582 459.179 58.1974 459.412C58.3366 459.645 58.5227 459.831 58.7557 459.97C58.9886 460.109 59.2472 460.179 59.5312 460.179C59.8608 460.179 60.1392 460.087 60.3665 459.902C60.5966 459.714 60.7415 459.474 60.8011 459.182H61.8324C61.7784 459.56 61.6463 459.899 61.4361 460.2C61.2259 460.499 60.956 460.734 60.6264 460.908C60.2997 461.081 59.9347 461.168 59.5312 461.168C59.0653 461.168 58.6406 461.054 58.2571 460.827C57.8736 460.599 57.5682 460.294 57.3409 459.911C57.1136 459.527 57 459.102 57 458.636ZM59.4886 463.136C58.8693 463.136 58.2869 463.02 57.7415 462.787C57.1989 462.554 56.7202 462.232 56.3054 461.82C55.8935 461.405 55.5696 460.926 55.3338 460.384C55.1009 459.841 54.9858 459.259 54.9886 458.636C54.9915 458.014 55.1094 457.432 55.3423 456.889C55.5781 456.347 55.902 455.869 56.3139 455.457C56.7259 455.043 57.2031 454.719 57.7457 454.486C58.2884 454.253 58.8693 454.136 59.4886 454.136C60.1108 454.136 60.6932 454.253 61.2358 454.486C61.7813 454.719 62.2585 455.043 62.6676 455.457C63.0795 455.869 63.402 456.347 63.6349 456.889C63.8679 457.432 63.9858 458.014 63.9886 458.636C63.9915 459.259 63.8764 459.841 63.6435 460.384C63.4105 460.926 63.0881 461.405 62.6761 461.82C62.2642 462.232 61.7855 462.554 61.2401 462.787C60.6946 463.02 60.1108 463.136 59.4886 463.136ZM59.4886 462.148C59.9744 462.148 60.4304 462.057 60.8565 461.875C61.2827 461.693 61.6562 461.442 61.9773 461.121C62.2983 460.8 62.5497 460.428 62.7315 460.004C62.9134 459.578 63.0028 459.124 63 458.641C62.9972 458.155 62.9048 457.699 62.723 457.273C62.5412 456.847 62.2898 456.473 61.9688 456.152C61.6477 455.831 61.2756 455.58 60.8523 455.398C60.429 455.216 59.9744 455.125 59.4886 455.125C59.0057 455.125 58.5526 455.216 58.1293 455.398C57.706 455.58 57.3338 455.832 57.0128 456.156C56.6918 456.477 56.4389 456.851 56.2543 457.277C56.0724 457.7 55.9801 458.155 55.9773 458.641C55.9744 459.121 56.0639 459.574 56.2457 460C56.4276 460.423 56.679 460.795 57 461.116C57.3239 461.437 57.6974 461.69 58.1207 461.875C58.5469 462.057 59.0028 462.148 59.4886 462.148ZM69.2589 463V462.233L72.1396 459.08C72.4776 458.71 72.756 458.389 72.9748 458.116C73.1935 457.841 73.3555 457.582 73.4606 457.341C73.5685 457.097 73.6225 456.841 73.6225 456.574C73.6225 456.267 73.5487 456.001 73.4009 455.777C73.256 455.553 73.0572 455.379 72.8043 455.257C72.5515 455.135 72.2674 455.074 71.9521 455.074C71.6168 455.074 71.3242 455.143 71.0742 455.283C70.8271 455.419 70.6353 455.611 70.4989 455.858C70.3654 456.105 70.2987 456.395 70.2987 456.727H69.293C69.293 456.216 69.4109 455.767 69.6467 455.381C69.8825 454.994 70.2035 454.693 70.6097 454.477C71.0188 454.261 71.4776 454.153 71.9862 454.153C72.4975 454.153 72.9506 454.261 73.3455 454.477C73.7404 454.693 74.0501 454.984 74.2745 455.351C74.4989 455.717 74.6112 456.125 74.6112 456.574C74.6112 456.895 74.5529 457.209 74.4364 457.516C74.3228 457.82 74.1239 458.159 73.8398 458.534C73.5586 458.906 73.168 459.361 72.668 459.898L70.7077 461.994V462.062H74.7646V463H69.2589ZM79.3711 463.119C78.729 463.119 78.1822 462.945 77.7305 462.595C77.2788 462.243 76.9336 461.733 76.695 461.065C76.4563 460.395 76.337 459.585 76.337 458.636C76.337 457.693 76.4563 456.888 76.695 456.22C76.9364 455.55 77.283 455.038 77.7347 454.686C78.1893 454.331 78.7347 454.153 79.3711 454.153C80.0075 454.153 80.5515 454.331 81.0032 454.686C81.4577 455.038 81.8043 455.55 82.043 456.22C82.2844 456.888 82.4052 457.693 82.4052 458.636C82.4052 459.585 82.2859 460.395 82.0472 461.065C81.8086 461.733 81.4634 462.243 81.0117 462.595C80.56 462.945 80.0131 463.119 79.3711 463.119ZM79.3711 462.182C80.0075 462.182 80.5018 461.875 80.854 461.261C81.2063 460.648 81.3825 459.773 81.3825 458.636C81.3825 457.881 81.3015 457.237 81.1396 456.706C80.9805 456.175 80.7504 455.77 80.4492 455.491C80.1509 455.213 79.7915 455.074 79.3711 455.074C78.7404 455.074 78.2475 455.385 77.8924 456.007C77.5373 456.626 77.3597 457.503 77.3597 458.636C77.3597 459.392 77.4393 460.034 77.5984 460.562C77.7575 461.091 77.9862 461.493 78.2844 461.768C78.5856 462.044 78.9478 462.182 79.3711 462.182ZM84.0245 463V462.233L86.9052 459.08C87.2433 458.71 87.5217 458.389 87.7404 458.116C87.9592 457.841 88.1211 457.582 88.2262 457.341C88.3342 457.097 88.3881 456.841 88.3881 456.574C88.3881 456.267 88.3143 456.001 88.1665 455.777C88.0217 455.553 87.8228 455.379 87.57 455.257C87.3171 455.135 87.033 455.074 86.7177 455.074C86.3825 455.074 86.0898 455.143 85.8398 455.283C85.5927 455.419 85.4009 455.611 85.2646 455.858C85.131 456.105 85.0643 456.395 85.0643 456.727H84.0586C84.0586 456.216 84.1765 455.767 84.4123 455.381C84.6481 454.994 84.9691 454.693 85.3754 454.477C85.7844 454.261 86.2433 454.153 86.7518 454.153C87.2631 454.153 87.7163 454.261 88.1112 454.477C88.506 454.693 88.8157 454.984 89.0401 455.351C89.2646 455.717 89.3768 456.125 89.3768 456.574C89.3768 456.895 89.3185 457.209 89.2021 457.516C89.0884 457.82 88.8896 458.159 88.6055 458.534C88.3242 458.906 87.9336 459.361 87.4336 459.898L85.4734 461.994V462.062H89.5302V463H84.0245ZM94.3583 454.273V463H93.3015V455.381H93.2504L91.1197 456.795V455.722L93.3015 454.273H94.3583ZM106.363 457C106.269 456.713 106.145 456.456 105.992 456.229C105.841 455.999 105.661 455.803 105.451 455.641C105.243 455.479 105.007 455.355 104.743 455.27C104.479 455.185 104.189 455.142 103.874 455.142C103.357 455.142 102.887 455.276 102.463 455.543C102.04 455.81 101.703 456.203 101.453 456.723C101.203 457.243 101.078 457.881 101.078 458.636C101.078 459.392 101.205 460.03 101.458 460.55C101.711 461.07 102.053 461.463 102.485 461.73C102.917 461.997 103.402 462.131 103.942 462.131C104.442 462.131 104.882 462.024 105.263 461.811C105.647 461.595 105.945 461.291 106.158 460.899C106.374 460.504 106.482 460.04 106.482 459.506L106.806 459.574H104.181V458.636H107.505V459.574C107.505 460.293 107.351 460.918 107.044 461.449C106.74 461.98 106.32 462.392 105.783 462.685C105.249 462.974 104.635 463.119 103.942 463.119C103.169 463.119 102.49 462.938 101.905 462.574C101.323 462.21 100.868 461.693 100.542 461.023C100.218 460.352 100.056 459.557 100.056 458.636C100.056 457.946 100.148 457.325 100.333 456.774C100.52 456.22 100.784 455.749 101.125 455.359C101.466 454.97 101.87 454.672 102.336 454.464C102.801 454.257 103.314 454.153 103.874 454.153C104.334 454.153 104.763 454.223 105.161 454.362C105.561 454.499 105.918 454.693 106.23 454.946C106.546 455.196 106.809 455.496 107.019 455.845C107.229 456.192 107.374 456.577 107.453 457H106.363ZM109.315 463V454.273H112.263C112.948 454.273 113.508 454.396 113.942 454.643C114.38 454.888 114.704 455.219 114.914 455.636C115.124 456.054 115.229 456.52 115.229 457.034C115.229 457.548 115.124 458.016 114.914 458.436C114.707 458.857 114.386 459.192 113.951 459.442C113.516 459.689 112.96 459.812 112.281 459.812H110.167V458.875H112.246C112.715 458.875 113.092 458.794 113.376 458.632C113.66 458.47 113.866 458.251 113.994 457.976C114.124 457.697 114.19 457.384 114.19 457.034C114.19 456.685 114.124 456.372 113.994 456.097C113.866 455.821 113.658 455.605 113.371 455.449C113.085 455.29 112.704 455.21 112.229 455.21H110.371V463H109.315ZM119.625 463H116.932V454.273H119.744C120.591 454.273 121.315 454.447 121.918 454.797C122.52 455.143 122.982 455.642 123.303 456.293C123.624 456.94 123.784 457.716 123.784 458.619C123.784 459.528 123.622 460.311 123.298 460.967C122.974 461.621 122.503 462.124 121.884 462.476C121.264 462.825 120.511 463 119.625 463ZM117.989 462.062H119.557C120.278 462.062 120.876 461.923 121.351 461.645C121.825 461.366 122.179 460.97 122.412 460.456C122.645 459.942 122.761 459.33 122.761 458.619C122.761 457.915 122.646 457.308 122.416 456.8C122.186 456.288 121.842 455.896 121.385 455.624C120.928 455.348 120.358 455.21 119.676 455.21H117.989V462.062ZM128.932 463V454.273H129.989V458.159H134.642V454.273H135.699V463H134.642V459.097H129.989V463H128.932ZM140.337 463.136C139.746 463.136 139.228 462.996 138.782 462.714C138.339 462.433 137.992 462.04 137.742 461.534C137.495 461.028 137.371 460.437 137.371 459.761C137.371 459.08 137.495 458.484 137.742 457.976C137.992 457.467 138.339 457.072 138.782 456.791C139.228 456.51 139.746 456.369 140.337 456.369C140.928 456.369 141.445 456.51 141.888 456.791C142.335 457.072 142.681 457.467 142.928 457.976C143.178 458.484 143.303 459.08 143.303 459.761C143.303 460.437 143.178 461.028 142.928 461.534C142.681 462.04 142.335 462.433 141.888 462.714C141.445 462.996 140.928 463.136 140.337 463.136ZM140.337 462.233C140.786 462.233 141.156 462.118 141.445 461.888C141.735 461.658 141.95 461.355 142.089 460.98C142.228 460.605 142.298 460.199 142.298 459.761C142.298 459.324 142.228 458.916 142.089 458.538C141.95 458.161 141.735 457.855 141.445 457.622C141.156 457.389 140.786 457.273 140.337 457.273C139.888 457.273 139.519 457.389 139.229 457.622C138.94 457.855 138.725 458.161 138.586 458.538C138.447 458.916 138.377 459.324 138.377 459.761C138.377 460.199 138.447 460.605 138.586 460.98C138.725 461.355 138.94 461.658 139.229 461.888C139.519 462.118 139.888 462.233 140.337 462.233ZM145.844 454.273V463H144.838V454.273H145.844ZM150.158 463.136C149.612 463.136 149.131 462.999 148.713 462.723C148.295 462.445 147.969 462.053 147.733 461.547C147.497 461.038 147.379 460.438 147.379 459.744C147.379 459.057 147.497 458.46 147.733 457.955C147.969 457.449 148.297 457.058 148.717 456.783C149.138 456.507 149.624 456.369 150.175 456.369C150.601 456.369 150.938 456.44 151.185 456.582C151.435 456.722 151.625 456.881 151.756 457.06C151.889 457.236 151.993 457.381 152.067 457.494H152.152V454.273H153.158V463H152.186V461.994H152.067C151.993 462.114 151.888 462.264 151.751 462.446C151.615 462.625 151.42 462.786 151.168 462.928C150.915 463.067 150.578 463.136 150.158 463.136ZM150.294 462.233C150.697 462.233 151.038 462.128 151.317 461.918C151.595 461.705 151.807 461.411 151.952 461.036C152.097 460.658 152.169 460.222 152.169 459.727C152.169 459.239 152.098 458.811 151.956 458.445C151.814 458.075 151.604 457.788 151.325 457.584C151.047 457.376 150.703 457.273 150.294 457.273C149.868 457.273 149.513 457.382 149.229 457.601C148.947 457.817 148.736 458.111 148.594 458.483C148.455 458.852 148.385 459.267 148.385 459.727C148.385 460.193 148.456 460.616 148.598 460.997C148.743 461.375 148.956 461.676 149.237 461.901C149.521 462.122 149.874 462.233 150.294 462.233ZM155.139 463V456.455H156.145V463H155.139ZM155.651 455.364C155.455 455.364 155.286 455.297 155.143 455.163C155.004 455.03 154.935 454.869 154.935 454.682C154.935 454.494 155.004 454.334 155.143 454.2C155.286 454.067 155.455 454 155.651 454C155.847 454 156.014 454.067 156.153 454.2C156.295 454.334 156.366 454.494 156.366 454.682C156.366 454.869 156.295 455.03 156.153 455.163C156.014 455.297 155.847 455.364 155.651 455.364ZM158.993 459.062V463H157.987V456.455H158.958V457.477H159.044C159.197 457.145 159.43 456.878 159.743 456.676C160.055 456.472 160.458 456.369 160.953 456.369C161.396 456.369 161.784 456.46 162.116 456.642C162.449 456.821 162.707 457.094 162.892 457.46C163.076 457.824 163.169 458.284 163.169 458.841V463H162.163V458.909C162.163 458.395 162.029 457.994 161.762 457.707C161.495 457.418 161.129 457.273 160.663 457.273C160.342 457.273 160.055 457.342 159.802 457.482C159.552 457.621 159.355 457.824 159.21 458.091C159.065 458.358 158.993 458.682 158.993 459.062ZM167.648 465.591C167.163 465.591 166.745 465.528 166.396 465.403C166.046 465.281 165.755 465.119 165.522 464.918C165.292 464.719 165.109 464.506 164.972 464.278L165.773 463.716C165.864 463.835 165.979 463.972 166.119 464.125C166.258 464.281 166.448 464.416 166.69 464.53C166.934 464.646 167.254 464.705 167.648 464.705C168.177 464.705 168.613 464.577 168.957 464.321C169.3 464.065 169.472 463.665 169.472 463.119V461.79H169.387C169.313 461.909 169.208 462.057 169.072 462.233C168.938 462.406 168.745 462.561 168.492 462.697C168.242 462.831 167.904 462.898 167.478 462.898C166.95 462.898 166.475 462.773 166.055 462.523C165.637 462.273 165.306 461.909 165.062 461.432C164.82 460.955 164.7 460.375 164.7 459.693C164.7 459.023 164.817 458.439 165.053 457.942C165.289 457.442 165.617 457.055 166.038 456.783C166.458 456.507 166.944 456.369 167.495 456.369C167.921 456.369 168.259 456.44 168.509 456.582C168.762 456.722 168.955 456.881 169.089 457.06C169.225 457.236 169.33 457.381 169.404 457.494H169.506V456.455H170.478V463.188C170.478 463.75 170.35 464.207 170.094 464.56C169.842 464.915 169.501 465.175 169.072 465.339C168.646 465.507 168.171 465.591 167.648 465.591ZM167.614 461.994C168.018 461.994 168.359 461.902 168.637 461.717C168.915 461.533 169.127 461.267 169.272 460.92C169.417 460.574 169.489 460.159 169.489 459.676C169.489 459.205 169.418 458.788 169.276 458.428C169.134 458.067 168.924 457.784 168.646 457.58C168.367 457.375 168.023 457.273 167.614 457.273C167.188 457.273 166.833 457.381 166.549 457.597C166.268 457.812 166.056 458.102 165.914 458.466C165.775 458.83 165.705 459.233 165.705 459.676C165.705 460.131 165.776 460.533 165.918 460.882C166.063 461.229 166.276 461.501 166.558 461.7C166.842 461.896 167.194 461.994 167.614 461.994ZM176.955 457.92L176.052 458.176C175.995 458.026 175.911 457.879 175.8 457.737C175.692 457.592 175.545 457.473 175.357 457.379C175.17 457.286 174.93 457.239 174.637 457.239C174.237 457.239 173.903 457.331 173.636 457.516C173.371 457.697 173.239 457.929 173.239 458.21C173.239 458.46 173.33 458.658 173.512 458.803C173.694 458.947 173.978 459.068 174.364 459.165L175.336 459.403C175.921 459.545 176.357 459.763 176.644 460.055C176.931 460.345 177.075 460.719 177.075 461.176C177.075 461.551 176.967 461.886 176.751 462.182C176.538 462.477 176.239 462.71 175.856 462.881C175.472 463.051 175.026 463.136 174.518 463.136C173.85 463.136 173.298 462.991 172.86 462.702C172.423 462.412 172.146 461.989 172.029 461.432L172.984 461.193C173.075 461.545 173.246 461.81 173.499 461.986C173.755 462.162 174.089 462.25 174.501 462.25C174.969 462.25 175.342 462.151 175.617 461.952C175.896 461.75 176.035 461.509 176.035 461.227C176.035 461 175.955 460.81 175.796 460.656C175.637 460.5 175.393 460.384 175.063 460.307L173.972 460.051C173.373 459.909 172.933 459.689 172.651 459.391C172.373 459.089 172.234 458.713 172.234 458.261C172.234 457.892 172.337 457.565 172.545 457.281C172.755 456.997 173.04 456.774 173.401 456.612C173.765 456.45 174.177 456.369 174.637 456.369C175.285 456.369 175.793 456.511 176.163 456.795C176.535 457.08 176.799 457.455 176.955 457.92ZM180.088 461.807L180.02 462.267C179.972 462.591 179.898 462.938 179.799 463.307C179.702 463.676 179.601 464.024 179.496 464.351C179.391 464.678 179.304 464.938 179.236 465.131H178.469C178.506 464.949 178.554 464.709 178.614 464.411C178.674 464.112 178.733 463.778 178.793 463.409C178.855 463.043 178.907 462.668 178.946 462.284L178.998 461.807H180.088ZM185.463 463V454.273H186.52V462.062H190.577V463H185.463ZM192.213 463V454.273H193.27V462.062H197.327V463H192.213ZM205.646 457H204.589C204.527 456.696 204.417 456.429 204.261 456.199C204.108 455.969 203.92 455.776 203.699 455.619C203.48 455.46 203.237 455.341 202.97 455.261C202.703 455.182 202.424 455.142 202.135 455.142C201.606 455.142 201.127 455.276 200.699 455.543C200.272 455.81 199.933 456.203 199.68 456.723C199.43 457.243 199.305 457.881 199.305 458.636C199.305 459.392 199.43 460.03 199.68 460.55C199.933 461.07 200.272 461.463 200.699 461.73C201.127 461.997 201.606 462.131 202.135 462.131C202.424 462.131 202.703 462.091 202.97 462.011C203.237 461.932 203.48 461.814 203.699 461.658C203.92 461.499 204.108 461.304 204.261 461.074C204.417 460.841 204.527 460.574 204.589 460.273H205.646C205.566 460.719 205.422 461.118 205.211 461.47C205.001 461.822 204.74 462.122 204.427 462.369C204.115 462.614 203.764 462.8 203.375 462.928C202.988 463.055 202.575 463.119 202.135 463.119C201.39 463.119 200.728 462.938 200.149 462.574C199.569 462.21 199.113 461.693 198.781 461.023C198.449 460.352 198.282 459.557 198.282 458.636C198.282 457.716 198.449 456.92 198.781 456.25C199.113 455.58 199.569 455.062 200.149 454.699C200.728 454.335 201.39 454.153 202.135 454.153C202.575 454.153 202.988 454.217 203.375 454.345C203.764 454.473 204.115 454.661 204.427 454.908C204.74 455.152 205.001 455.45 205.211 455.803C205.422 456.152 205.566 456.551 205.646 457ZM210.729 463V454.273H215.962V455.21H211.786V458.159H215.57V459.097H211.786V463H210.729ZM217.635 463V456.455H218.641V463H217.635ZM218.147 455.364C217.951 455.364 217.782 455.297 217.64 455.163C217.5 455.03 217.431 454.869 217.431 454.682C217.431 454.494 217.5 454.334 217.64 454.2C217.782 454.067 217.951 454 218.147 454C218.343 454 218.51 454.067 218.65 454.2C218.792 454.334 218.863 454.494 218.863 454.682C218.863 454.869 218.792 455.03 218.65 455.163C218.51 455.297 218.343 455.364 218.147 455.364ZM221.489 459.062V463H220.483V456.455H221.455V457.477H221.54C221.693 457.145 221.926 456.878 222.239 456.676C222.551 456.472 222.955 456.369 223.449 456.369C223.892 456.369 224.28 456.46 224.612 456.642C224.945 456.821 225.203 457.094 225.388 457.46C225.572 457.824 225.665 458.284 225.665 458.841V463H224.659V458.909C224.659 458.395 224.526 457.994 224.259 457.707C223.991 457.418 223.625 457.273 223.159 457.273C222.838 457.273 222.551 457.342 222.298 457.482C222.048 457.621 221.851 457.824 221.706 458.091C221.561 458.358 221.489 458.682 221.489 459.062ZM234.662 457H233.605C233.542 456.696 233.433 456.429 233.277 456.199C233.123 455.969 232.936 455.776 232.714 455.619C232.495 455.46 232.252 455.341 231.985 455.261C231.718 455.182 231.44 455.142 231.15 455.142C230.622 455.142 230.143 455.276 229.714 455.543C229.288 455.81 228.949 456.203 228.696 456.723C228.446 457.243 228.321 457.881 228.321 458.636C228.321 459.392 228.446 460.03 228.696 460.55C228.949 461.07 229.288 461.463 229.714 461.73C230.143 461.997 230.622 462.131 231.15 462.131C231.44 462.131 231.718 462.091 231.985 462.011C232.252 461.932 232.495 461.814 232.714 461.658C232.936 461.499 233.123 461.304 233.277 461.074C233.433 460.841 233.542 460.574 233.605 460.273H234.662C234.582 460.719 234.437 461.118 234.227 461.47C234.017 461.822 233.755 462.122 233.443 462.369C233.13 462.614 232.779 462.8 232.39 462.928C232.004 463.055 231.591 463.119 231.15 463.119C230.406 463.119 229.744 462.938 229.164 462.574C228.585 462.21 228.129 461.693 227.797 461.023C227.464 460.352 227.298 459.557 227.298 458.636C227.298 457.716 227.464 456.92 227.797 456.25C228.129 455.58 228.585 455.062 229.164 454.699C229.744 454.335 230.406 454.153 231.15 454.153C231.591 454.153 232.004 454.217 232.39 454.345C232.779 454.473 233.13 454.661 233.443 454.908C233.755 455.152 234.017 455.45 234.227 455.803C234.437 456.152 234.582 456.551 234.662 457ZM236.369 463V454.273H241.636V455.21H237.426V458.159H241.364V459.097H237.426V462.062H241.705V463H236.369ZM250.462 454.273V463H249.439L244.683 456.148H244.598V463H243.541V454.273H244.564L249.337 461.142H249.422V454.273H250.462ZM255.951 454.273H257.213L260.179 461.517H260.281L263.247 454.273H264.508V463H263.52V456.369H263.434L260.707 463H259.752L257.025 456.369H256.94V463H255.951V454.273ZM271.4 456.455C271.349 456.023 271.141 455.688 270.778 455.449C270.414 455.21 269.968 455.091 269.44 455.091C269.053 455.091 268.715 455.153 268.425 455.278C268.138 455.403 267.914 455.575 267.752 455.794C267.593 456.013 267.513 456.261 267.513 456.54C267.513 456.773 267.569 456.973 267.68 457.141C267.793 457.305 267.938 457.443 268.114 457.554C268.29 457.662 268.475 457.751 268.668 457.822C268.862 457.891 269.039 457.946 269.201 457.989L270.087 458.227C270.315 458.287 270.567 458.369 270.846 458.474C271.127 458.58 271.396 458.723 271.651 458.905C271.91 459.084 272.123 459.314 272.29 459.595C272.458 459.876 272.542 460.222 272.542 460.631C272.542 461.102 272.418 461.528 272.171 461.909C271.927 462.29 271.569 462.592 271.097 462.817C270.629 463.041 270.059 463.153 269.388 463.153C268.763 463.153 268.222 463.053 267.765 462.851C267.31 462.649 266.952 462.368 266.691 462.007C266.433 461.646 266.286 461.227 266.252 460.75H267.343C267.371 461.08 267.482 461.352 267.675 461.568C267.871 461.781 268.119 461.94 268.417 462.045C268.718 462.148 269.042 462.199 269.388 462.199C269.792 462.199 270.154 462.134 270.475 462.003C270.796 461.869 271.05 461.685 271.238 461.449C271.425 461.21 271.519 460.932 271.519 460.614C271.519 460.324 271.438 460.088 271.276 459.906C271.114 459.724 270.901 459.577 270.637 459.463C270.373 459.349 270.087 459.25 269.781 459.165L268.707 458.858C268.025 458.662 267.485 458.382 267.087 458.018C266.69 457.655 266.491 457.179 266.491 456.591C266.491 456.102 266.623 455.676 266.887 455.312C267.154 454.946 267.512 454.662 267.961 454.46C268.413 454.256 268.917 454.153 269.474 454.153C270.036 454.153 270.536 454.254 270.974 454.456C271.411 454.655 271.758 454.928 272.013 455.274C272.272 455.621 272.408 456.014 272.423 456.455H271.4ZM274.279 463V454.273H277.331C277.939 454.273 278.44 454.378 278.835 454.588C279.23 454.795 279.524 455.075 279.717 455.428C279.91 455.777 280.007 456.165 280.007 456.591C280.007 456.966 279.94 457.276 279.806 457.52C279.676 457.764 279.502 457.957 279.287 458.099C279.074 458.241 278.842 458.347 278.592 458.415V458.5C278.859 458.517 279.127 458.611 279.397 458.781C279.667 458.952 279.893 459.196 280.075 459.514C280.257 459.832 280.348 460.222 280.348 460.682C280.348 461.119 280.248 461.513 280.049 461.862C279.85 462.212 279.537 462.489 279.108 462.693C278.679 462.898 278.12 463 277.433 463H274.279ZM275.336 462.062H277.433C278.123 462.062 278.613 461.929 278.903 461.662C279.196 461.392 279.342 461.065 279.342 460.682C279.342 460.386 279.267 460.114 279.116 459.864C278.966 459.611 278.751 459.409 278.473 459.259C278.194 459.105 277.865 459.028 277.484 459.028H275.336V462.062ZM275.336 458.108H277.297C277.615 458.108 277.902 458.045 278.157 457.92C278.416 457.795 278.62 457.619 278.771 457.392C278.924 457.165 279.001 456.898 279.001 456.591C279.001 456.207 278.868 455.882 278.6 455.615C278.333 455.345 277.91 455.21 277.331 455.21H275.336V458.108Z" fill="#F1F3F5"/>
</g>
<defs>
<filter id="filter0_f_73_5185" x="-520.341" y="-55.0664" width="1395.93" height="1396.4" filterUnits="userSpaceOnUse" color-interpolation-filters="sRGB">
<feFlood flood-opacity="0" result="BackgroundImageFix"/>
<feBlend mode="normal" in="SourceGraphic" in2="BackgroundImageFix" result="shape"/>
<feGaussianBlur stdDeviation="200" result="effect1_foregroundBlur_73_5185"/>
</filter>
<filter id="filter1_f_73_5185" x="-44.9072" y="299.852" width="806.248" height="686.564" filterUnits="userSpaceOnUse" color-interpolation-filters="sRGB">
<feFlood flood-opacity="0" result="BackgroundImageFix"/>
<feBlend mode="normal" in="SourceGraphic" in2="BackgroundImageFix" result="shape"/>
<feGaussianBlur stdDeviation="100" result="effect1_foregroundBlur_73_5185"/>
</filter>
<linearGradient id="paint0_linear_73_5185" x1="177.622" y1="345.172" x2="177.622" y2="941.099" gradientUnits="userSpaceOnUse">
<stop stop-color="#2C4982"/>
<stop offset="1" stop-color="#2CD095"/>
</linearGradient>
<linearGradient id="paint1_linear_73_5185" x1="298.375" y1="786.416" x2="298.375" y2="1192.66" gradientUnits="userSpaceOnUse">
<stop stop-color="#18FF9E" stop-opacity="0"/>
<stop offset="1" stop-color="#17FFE3"/>
</linearGradient>
<clipPath id="clip0_73_5185">
<rect width="562" height="910" fill="white" transform="translate(0 562) rotate(-90)"/>
</clipPath>
</defs>
</svg>
