<svg width="162" height="52" viewBox="0 0 162 52" fill="none" xmlns="http://www.w3.org/2000/svg">
<rect x="0.5" y="0.5" width="160.592" height="51" rx="9.5" fill="url(#paint0_linear_25_16)"/>
<rect x="0.5" y="0.5" width="160.592" height="51" rx="9.5" stroke="url(#paint1_linear_25_16)" style="mix-blend-mode:overlay"/>
<path d="M33.136 31V19.8H36.992C37.8773 19.8 38.6027 19.9493 39.168 20.248C39.744 20.5467 40.1707 20.952 40.448 21.464C40.7253 21.9653 40.864 22.5253 40.864 23.144C40.864 23.8373 40.6773 24.4667 40.304 25.032C39.9413 25.5973 39.3707 26.0027 38.592 26.248L40.976 31H39.008L36.832 26.488H34.832V31H33.136ZM34.832 25.208H36.896C37.664 25.208 38.224 25.0213 38.576 24.648C38.9387 24.2747 39.12 23.7893 39.12 23.192C39.12 22.5947 38.944 22.12 38.592 21.768C38.24 21.4053 37.6693 21.224 36.88 21.224H34.832V25.208ZM46.034 31.192C45.2553 31.192 44.562 31.0213 43.954 30.68C43.3567 30.328 42.8873 29.8427 42.546 29.224C42.2047 28.6053 42.034 27.8853 42.034 27.064C42.034 26.232 42.1993 25.5013 42.53 24.872C42.8713 24.2427 43.3407 23.752 43.938 23.4C44.546 23.048 45.25 22.872 46.05 22.872C46.8287 22.872 47.506 23.048 48.082 23.4C48.658 23.7413 49.106 24.2 49.426 24.776C49.746 25.352 49.906 25.9867 49.906 26.68C49.906 26.7867 49.9007 26.904 49.89 27.032C49.89 27.1493 49.8847 27.2827 49.874 27.432H43.698C43.7513 28.2 44.002 28.7867 44.45 29.192C44.9087 29.5867 45.4367 29.784 46.034 29.784C46.514 29.784 46.914 29.6773 47.234 29.464C47.5647 29.24 47.81 28.9413 47.97 28.568H49.666C49.4527 29.3147 49.026 29.9387 48.386 30.44C47.7567 30.9413 46.9727 31.192 46.034 31.192ZM46.034 24.264C45.4687 24.264 44.9673 24.4347 44.53 24.776C44.0927 25.1067 43.826 25.608 43.73 26.28H48.21C48.178 25.6613 47.9593 25.1707 47.554 24.808C47.1487 24.4453 46.642 24.264 46.034 24.264ZM54.3538 31.192C53.6818 31.192 53.1271 31.08 52.6898 30.856C52.2524 30.632 51.9271 30.3387 51.7138 29.976C51.5004 29.6027 51.3938 29.1973 51.3938 28.76C51.3938 27.992 51.6924 27.384 52.2898 26.936C52.8871 26.488 53.7404 26.264 54.8498 26.264H56.9298V26.12C56.9298 25.5013 56.7591 25.0373 56.4178 24.728C56.0871 24.4187 55.6551 24.264 55.1218 24.264C54.6524 24.264 54.2418 24.3813 53.8898 24.616C53.5484 24.84 53.3404 25.176 53.2658 25.624H51.5698C51.6231 25.048 51.8151 24.5573 52.1458 24.152C52.4871 23.736 52.9138 23.4213 53.4258 23.208C53.9484 22.984 54.5191 22.872 55.1378 22.872C56.2471 22.872 57.1058 23.1653 57.7138 23.752C58.3218 24.328 58.6258 25.1173 58.6258 26.12V31H57.1538L57.0098 29.64C56.7858 30.0773 56.4604 30.4453 56.0338 30.744C55.6071 31.0427 55.0471 31.192 54.3538 31.192ZM54.6898 29.816C55.1484 29.816 55.5324 29.7093 55.8418 29.496C56.1618 29.272 56.4071 28.9787 56.5778 28.616C56.7591 28.2533 56.8711 27.8533 56.9138 27.416H55.0258C54.3538 27.416 53.8738 27.5333 53.5858 27.768C53.3084 28.0027 53.1698 28.296 53.1698 28.648C53.1698 29.0107 53.3031 29.2987 53.5698 29.512C53.8471 29.7147 54.2204 29.816 54.6898 29.816ZM64.2193 31.192C63.4513 31.192 62.7739 31.0107 62.1873 30.648C61.6006 30.2853 61.1419 29.7893 60.8113 29.16C60.4806 28.5307 60.3153 27.816 60.3153 27.016C60.3153 26.216 60.4806 25.5067 60.8113 24.888C61.1419 24.2587 61.6006 23.768 62.1873 23.416C62.7846 23.0533 63.4673 22.872 64.2352 22.872C64.8646 22.872 65.4139 22.9947 65.8833 23.24C66.3633 23.4853 66.7366 23.832 67.0033 24.28V19.48H68.6993V31H67.1793L67.0033 29.768C66.7473 30.1413 66.3953 30.472 65.9473 30.76C65.4993 31.048 64.9233 31.192 64.2193 31.192ZM64.5233 29.72C65.2486 29.72 65.8406 29.4693 66.2993 28.968C66.7686 28.4667 67.0033 27.8213 67.0033 27.032C67.0033 26.232 66.7686 25.5867 66.2993 25.096C65.8406 24.5947 65.2486 24.344 64.5233 24.344C63.7979 24.344 63.2006 24.5947 62.7313 25.096C62.2619 25.5867 62.0273 26.232 62.0273 27.032C62.0273 27.5547 62.1339 28.0187 62.3473 28.424C62.5606 28.8293 62.8539 29.1493 63.2273 29.384C63.6113 29.608 64.0433 29.72 64.5233 29.72ZM74.9329 31V19.8H76.9329L80.7249 27.256L84.5009 19.8H86.5009V31H84.8049V22.728L81.3809 29.4H80.0689L76.6289 22.744V31H74.9329ZM92.4246 31.192C91.6673 31.192 90.9846 31.0213 90.3766 30.68C89.7793 30.328 89.3046 29.8427 88.9526 29.224C88.6006 28.5947 88.4246 27.864 88.4246 27.032C88.4246 26.2 88.6006 25.4747 88.9526 24.856C89.3153 24.2267 89.8006 23.7413 90.4086 23.4C91.0166 23.048 91.694 22.872 92.4406 22.872C93.198 22.872 93.8753 23.048 94.4726 23.4C95.0806 23.7413 95.5606 24.2267 95.9126 24.856C96.2753 25.4747 96.4566 26.2 96.4566 27.032C96.4566 27.864 96.2753 28.5947 95.9126 29.224C95.5606 29.8427 95.0806 30.328 94.4726 30.68C93.8646 31.0213 93.182 31.192 92.4246 31.192ZM92.4246 29.736C92.83 29.736 93.2033 29.6347 93.5446 29.432C93.8966 29.2293 94.1793 28.9307 94.3926 28.536C94.606 28.1307 94.7126 27.6293 94.7126 27.032C94.7126 26.4347 94.606 25.9387 94.3926 25.544C94.19 25.1387 93.9126 24.8347 93.5606 24.632C93.2193 24.4293 92.846 24.328 92.4406 24.328C92.0353 24.328 91.6566 24.4293 91.3046 24.632C90.9633 24.8347 90.686 25.1387 90.4726 25.544C90.2593 25.9387 90.1526 26.4347 90.1526 27.032C90.1526 27.6293 90.2593 28.1307 90.4726 28.536C90.686 28.9307 90.9633 29.2293 91.3046 29.432C91.646 29.6347 92.0193 29.736 92.4246 29.736ZM98.2908 31V23.064H99.8108L99.9548 24.568C100.232 24.0453 100.616 23.6347 101.107 23.336C101.608 23.0267 102.211 22.872 102.915 22.872V24.648H102.451C101.981 24.648 101.56 24.728 101.187 24.888C100.824 25.0373 100.531 25.2987 100.307 25.672C100.093 26.0347 99.9868 26.5413 99.9868 27.192V31H98.2908ZM107.862 31.192C107.083 31.192 106.39 31.0213 105.782 30.68C105.185 30.328 104.715 29.8427 104.374 29.224C104.033 28.6053 103.862 27.8853 103.862 27.064C103.862 26.232 104.027 25.5013 104.358 24.872C104.699 24.2427 105.169 23.752 105.766 23.4C106.374 23.048 107.078 22.872 107.878 22.872C108.657 22.872 109.334 23.048 109.91 23.4C110.486 23.7413 110.934 24.2 111.254 24.776C111.574 25.352 111.734 25.9867 111.734 26.68C111.734 26.7867 111.729 26.904 111.718 27.032C111.718 27.1493 111.713 27.2827 111.702 27.432H105.526C105.579 28.2 105.83 28.7867 106.278 29.192C106.737 29.5867 107.265 29.784 107.862 29.784C108.342 29.784 108.742 29.6773 109.062 29.464C109.393 29.24 109.638 28.9413 109.798 28.568H111.494C111.281 29.3147 110.854 29.9387 110.214 30.44C109.585 30.9413 108.801 31.192 107.862 31.192ZM107.862 24.264C107.297 24.264 106.795 24.4347 106.358 24.776C105.921 25.1067 105.654 25.608 105.558 26.28H110.038C110.006 25.6613 109.787 25.1707 109.382 24.808C108.977 24.4453 108.47 24.264 107.862 24.264Z" fill="white"/>
<path d="M129.432 25.6098L124.982 21.1598C124.879 21.0567 124.742 21 124.595 21C124.449 21 124.311 21.0567 124.209 21.1598L123.881 21.4874C123.668 21.7009 123.668 22.0479 123.881 22.261L127.618 25.9979L123.877 29.739C123.774 29.842 123.717 29.9793 123.717 30.1257C123.717 30.2723 123.774 30.4096 123.877 30.5127L124.204 30.8402C124.307 30.9433 124.445 31 124.591 31C124.738 31 124.875 30.9433 124.978 30.8402L129.432 26.3861C129.535 26.2828 129.592 26.1448 129.592 25.9982C129.592 25.8509 129.535 25.7131 129.432 25.6098Z" fill="white"/>
<defs>
<linearGradient id="paint0_linear_25_16" x1="130.699" y1="5.54412" x2="109.181" y2="72.4136" gradientUnits="userSpaceOnUse">
<stop stop-color="#18C8FF"/>
<stop offset="1" stop-color="#933FFE"/>
</linearGradient>
<linearGradient id="paint1_linear_25_16" x1="98.552" y1="6.5272" x2="98.552" y2="40.9038" gradientUnits="userSpaceOnUse">
<stop stop-color="white" stop-opacity="0.47"/>
<stop offset="0.453125" stop-color="white" stop-opacity="0.546875"/>
<stop offset="1" stop-color="white" stop-opacity="0.39"/>
</linearGradient>
</defs>
</svg>
