<svg width="375" height="927" viewBox="0 0 375 927" fill="none" xmlns="http://www.w3.org/2000/svg">
<path d="M455.929 531.038C448 546.994 432.976 558.527 412.519 565.692C392.06 572.857 366.196 575.64 336.664 574.106C277.601 571.04 203.962 550.716 129.761 513.843C55.5607 476.969 -5.10977 430.549 -43.2228 385.325C-62.2799 362.712 -75.6813 340.417 -82.3259 319.782C-88.9696 299.15 -88.8498 280.211 -80.9208 264.255C-72.9917 248.299 -57.9681 236.766 -37.5112 229.601C-17.0513 222.436 8.81186 219.653 38.3441 221.187C97.4069 224.254 171.046 244.577 245.247 281.45C319.448 318.324 380.118 364.745 418.231 409.969C437.288 432.581 450.69 454.876 457.334 475.511C463.978 496.143 463.858 515.082 455.929 531.038Z" stroke="url(#paint0_linear_73_5268)"/>
<path d="M577.711 591.556C566.157 614.806 544.272 631.596 514.512 642.018C484.749 652.442 447.14 656.486 404.213 654.257C318.361 649.799 211.338 620.259 103.508 566.674C-4.32123 513.089 -92.4983 445.626 -147.898 379.89C-175.599 347.021 -195.089 314.603 -204.755 284.585C-214.42 254.57 -214.254 226.987 -202.7 203.737C-191.146 180.487 -169.262 163.698 -139.501 153.275C-109.738 142.851 -72.129 138.808 -29.2022 141.037C56.6497 145.494 163.673 175.034 271.502 228.619C379.332 282.204 467.509 349.667 522.909 415.404C550.609 448.272 570.099 480.69 579.765 510.709C589.43 540.724 589.265 568.306 577.711 591.556Z" stroke="url(#paint1_linear_73_5268)"/>
<path d="M725.895 665.196C709.93 697.322 679.697 720.506 638.616 734.894C597.532 749.283 545.631 754.86 486.405 751.785C367.956 745.635 220.311 704.881 71.5615 630.961C-77.1881 557.041 -198.836 463.972 -275.27 373.277C-313.488 327.928 -340.387 283.192 -353.73 241.756C-367.071 200.324 -366.85 162.225 -350.885 130.098C-334.92 97.9722 -304.687 74.7877 -263.606 60.4001C-222.522 46.0114 -170.621 40.434 -111.395 43.5092C7.05397 49.6593 154.699 90.4132 303.448 164.333C452.198 238.253 573.846 331.322 650.28 422.018C688.498 467.366 715.397 512.103 728.739 553.538C742.081 594.97 741.86 633.069 725.895 665.196Z" stroke="url(#paint2_linear_73_5268)"/>
<defs>
<linearGradient id="paint0_linear_73_5268" x1="-59.3305" y1="258.585" x2="388.896" y2="569.484" gradientUnits="userSpaceOnUse">
<stop stop-color="#484848"/>
<stop offset="0.491388" stop-color="#484848" stop-opacity="0.36"/>
<stop offset="1" stop-color="#484848"/>
</linearGradient>
<linearGradient id="paint1_linear_73_5268" x1="-171.128" y1="195.599" x2="480.114" y2="647.315" gradientUnits="userSpaceOnUse">
<stop stop-color="#484848"/>
<stop offset="0.491388" stop-color="#484848" stop-opacity="0.36"/>
<stop offset="1" stop-color="#484848"/>
</linearGradient>
<linearGradient id="paint2_linear_73_5268" x1="-307.167" y1="118.958" x2="591.107" y2="742.021" gradientUnits="userSpaceOnUse">
<stop stop-color="#484848"/>
<stop offset="0.491388" stop-color="#484848" stop-opacity="0.36"/>
<stop offset="1" stop-color="#484848"/>
</linearGradient>
</defs>
</svg>
