<svg width="119" height="36" viewBox="0 0 119 36" fill="none" xmlns="http://www.w3.org/2000/svg">
<path d="M25.7922 34.226C23.0403 35.5475 19.9976 36.1474 16.95 35.9693C13.9025 35.7913 10.9503 34.841 8.37106 33.208C5.79183 31.575 3.67031 29.3128 2.20598 26.6342C0.741652 23.9556 -0.017365 20.9485 0.000301414 17.8958C0.0179678 14.8431 0.811737 11.8451 2.30697 9.18361C3.8022 6.52212 5.94977 4.28464 8.54772 2.68156C11.1457 1.07849 14.1087 0.162489 17.1581 0.0197009C20.2075 -0.123087 23.2431 0.512026 25.9795 1.86532L22.0859 9.73826C20.6847 9.04531 19.1303 8.7201 17.5689 8.79321C16.0075 8.86633 14.4903 9.33536 13.16 10.1562C11.8297 10.9771 10.73 12.1228 9.9644 13.4856C9.19877 14.8484 8.79232 16.3835 8.78328 17.9467C8.77423 19.5098 9.16288 21.0495 9.91269 22.4211C10.6625 23.7927 11.7488 24.951 13.0695 25.7872C14.3902 26.6234 15.9019 27.11 17.4624 27.2012C19.0229 27.2924 20.5809 26.9852 21.99 26.3085L25.7922 34.226Z" fill="url(#paint0_linear_73_5301)"/>
<ellipse cx="17.7856" cy="17.7856" rx="6.21429" ry="6.21429" fill="#B982FF"/>
<path d="M117.062 22.7177C116.596 22.7177 116.196 22.5548 115.862 22.229C115.532 21.8992 115.369 21.499 115.373 21.0284C115.369 20.5699 115.532 20.1778 115.862 19.852C116.196 19.5262 116.596 19.3633 117.062 19.3633C117.505 19.3633 117.895 19.5262 118.233 19.852C118.575 20.1778 118.748 20.5699 118.752 21.0284C118.748 21.3421 118.665 21.6277 118.504 21.8851C118.347 22.1385 118.142 22.3416 117.889 22.4945C117.636 22.6433 117.36 22.7177 117.062 22.7177Z" fill="#B982FF"/>
<path d="M107.574 25.9998C107.191 25.9998 106.827 25.9696 106.482 25.9093C106.136 25.8529 105.832 25.7745 105.571 25.674L106.295 23.309C106.568 23.4055 106.817 23.4679 107.043 23.496C107.272 23.5242 107.467 23.5081 107.628 23.4477C107.793 23.3874 107.911 23.2728 107.984 23.1039L108.056 22.9349L104.798 13.2578H108.273L109.77 19.677H109.866L111.387 13.2578H114.886L111.507 23.2969C111.338 23.8077 111.093 24.2662 110.771 24.6725C110.453 25.0827 110.035 25.4065 109.516 25.6438C108.997 25.8811 108.35 25.9998 107.574 25.9998Z" fill="white"/>
<path d="M103.85 10.1689V22.5248H100.52V10.1689H103.85Z" fill="white"/>
<path d="M98.823 10.1689V22.5248H95.4927V10.1689H98.823Z" fill="white"/>
<path d="M89.339 22.6942C88.3335 22.6942 87.4727 22.4951 86.7568 22.0969C86.0409 21.6947 85.4919 21.1356 85.1098 20.4197C84.7277 19.6997 84.5366 18.8651 84.5366 17.9159C84.5366 16.9667 84.7277 16.1341 85.1098 15.4182C85.4919 14.6983 86.0409 14.1392 86.7568 13.741C87.4727 13.3388 88.3335 13.1377 89.339 13.1377C90.3445 13.1377 91.2052 13.3388 91.9212 13.741C92.6371 14.1392 93.1861 14.6983 93.5682 15.4182C93.9503 16.1341 94.1413 16.9667 94.1413 17.9159C94.1413 18.8651 93.9503 19.6997 93.5682 20.4197C93.1861 21.1356 92.6371 21.6947 91.9212 22.0969C91.2052 22.4951 90.3445 22.6942 89.339 22.6942ZM89.3631 20.2326C89.6447 20.2326 89.888 20.1381 90.0931 19.9491C90.2982 19.76 90.4571 19.4906 90.5697 19.1406C90.6824 18.7907 90.7387 18.3744 90.7387 17.8918C90.7387 17.4051 90.6824 16.9888 90.5697 16.6429C90.4571 16.293 90.2982 16.0235 90.0931 15.8345C89.888 15.6455 89.6447 15.5509 89.3631 15.5509C89.0655 15.5509 88.8101 15.6455 88.5969 15.8345C88.3837 16.0235 88.2208 16.293 88.1082 16.6429C87.9956 16.9888 87.9393 17.4051 87.9393 17.8918C87.9393 18.3744 87.9956 18.7907 88.1082 19.1406C88.2208 19.4906 88.3837 19.76 88.5969 19.9491C88.8101 20.1381 89.0655 20.2326 89.3631 20.2326Z" fill="white"/>
<path d="M83.6148 13.2573V15.6705H77.5093V13.2573H83.6148ZM78.6918 11.0371H82.022V19.5438C82.022 19.6725 82.0442 19.7811 82.0884 19.8696C82.1327 19.9541 82.201 20.0184 82.2935 20.0627C82.386 20.1029 82.5047 20.123 82.6495 20.123C82.75 20.123 82.8667 20.1109 82.9994 20.0868C83.1362 20.0626 83.2367 20.0425 83.3011 20.0265L83.7837 22.3673C83.6349 22.4115 83.4217 22.4658 83.1442 22.5302C82.8707 22.5945 82.5449 22.6368 82.1668 22.6569C81.4026 22.6971 80.7611 22.6187 80.2423 22.4216C79.7234 22.2205 79.3333 21.9048 79.0719 21.4744C78.8104 21.044 78.6837 20.5051 78.6918 19.8575V11.0371Z" fill="white"/>
<path d="M67.0889 26.0003V13.2584H70.395V14.8752H70.4674C70.5881 14.5615 70.765 14.2739 70.9983 14.0125C71.2316 13.747 71.5212 13.5359 71.8671 13.379C72.213 13.2181 72.6152 13.1377 73.0737 13.1377C73.6851 13.1377 74.2663 13.3006 74.8173 13.6264C75.3723 13.9522 75.8228 14.465 76.1687 15.1648C76.5186 15.8647 76.6936 16.7737 76.6936 17.8918C76.6936 18.9617 76.5267 19.8485 76.1928 20.5524C75.863 21.2563 75.4206 21.7811 74.8656 22.127C74.3145 22.4729 73.7092 22.6459 73.0496 22.6459C72.6152 22.6459 72.2271 22.5755 71.8852 22.4347C71.5473 22.2899 71.2578 22.0949 71.0164 21.8495C70.7791 21.6001 70.5961 21.3186 70.4674 21.0049H70.4191V26.0003H67.0889ZM70.3468 17.8918C70.3468 18.3423 70.4051 18.7324 70.5217 19.0622C70.6424 19.388 70.8113 19.6414 71.0285 19.8224C71.2497 19.9994 71.5132 20.0878 71.8188 20.0878C72.1245 20.0878 72.3839 20.0014 72.5971 19.8284C72.8143 19.6514 72.9792 19.4001 73.0918 19.0743C73.2085 18.7445 73.2668 18.3503 73.2668 17.8918C73.2668 17.4333 73.2085 17.0411 73.0918 16.7153C72.9792 16.3855 72.8143 16.1341 72.5971 15.9612C72.3839 15.7842 72.1245 15.6957 71.8188 15.6957C71.5132 15.6957 71.2497 15.7842 71.0285 15.9612C70.8113 16.1341 70.6424 16.3855 70.5217 16.7153C70.4051 17.0411 70.3468 17.4333 70.3468 17.8918Z" fill="white"/>
<path d="M58.8289 25.9998C58.4468 25.9998 58.0828 25.9696 57.7369 25.9093C57.3911 25.8529 57.0874 25.7745 56.826 25.674L57.5499 23.309C57.8234 23.4055 58.0728 23.4679 58.298 23.496C58.5273 23.5242 58.7224 23.5081 58.8832 23.4477C59.0481 23.3874 59.1668 23.2728 59.2392 23.1039L59.3116 22.9349L56.0537 13.2578H59.5288L61.025 19.677H61.1215L62.6419 13.2578H66.1411L62.7625 23.2969C62.5936 23.8077 62.3483 24.2662 62.0265 24.6725C61.7088 25.0827 61.2905 25.4065 60.7716 25.6438C60.2528 25.8811 59.6052 25.9998 58.8289 25.9998Z" fill="white"/>
<path d="M49.1538 22.5252V13.2584H52.3876V15.02H52.4841C52.653 14.3685 52.9205 13.8918 53.2865 13.5902C53.6565 13.2885 54.0889 13.1377 54.5836 13.1377C54.7284 13.1377 54.8712 13.1498 55.012 13.1739C55.1568 13.194 55.2955 13.2242 55.4282 13.2644V16.106C55.2633 16.0497 55.0602 16.0074 54.8189 15.9793C54.5776 15.9511 54.3704 15.9371 54.1975 15.9371C53.8717 15.9371 53.5781 16.0115 53.3167 16.1603C53.0592 16.3051 52.8561 16.5102 52.7073 16.7757C52.5585 17.0371 52.4841 17.3448 52.4841 17.6987V22.5252H49.1538Z" fill="white"/>
<path d="M47.5836 14.8024H44.1809C44.1568 14.5208 44.0924 14.2654 43.9878 14.0362C43.8873 13.8069 43.7465 13.6098 43.5655 13.4449C43.3886 13.276 43.1734 13.1473 42.92 13.0588C42.6666 12.9663 42.379 12.92 42.0572 12.92C41.4942 12.92 41.0175 13.0568 40.6274 13.3303C40.2413 13.6038 39.9477 13.9959 39.7466 14.5067C39.5495 15.0175 39.4509 15.6309 39.4509 16.3468C39.4509 17.103 39.5515 17.7365 39.7526 18.2473C39.9577 18.7541 40.2533 19.1361 40.6395 19.3936C41.0256 19.647 41.4901 19.7736 42.0331 19.7736C42.3428 19.7736 42.6203 19.7354 42.8657 19.659C43.111 19.5786 43.3242 19.4639 43.5052 19.3151C43.6862 19.1663 43.833 18.9873 43.9456 18.7782C44.0623 18.565 44.1407 18.3257 44.1809 18.0602L47.5836 18.0844C47.5434 18.6072 47.3966 19.1402 47.1432 19.6832C46.8898 20.2221 46.5298 20.7208 46.0632 21.1794C45.6007 21.6339 45.0276 21.9999 44.3438 22.2774C43.66 22.5549 42.8657 22.6937 41.9607 22.6937C40.8265 22.6937 39.8089 22.4503 38.908 21.9637C38.011 21.477 37.3011 20.7611 36.7783 19.8159C36.2594 18.8707 36 17.7143 36 16.3468C36 14.9713 36.2655 13.8129 36.7964 12.8718C37.3273 11.9266 38.0432 11.2127 38.9442 10.73C39.8451 10.2433 40.8506 10 41.9607 10C42.741 10 43.4589 10.1066 44.1145 10.3198C44.7701 10.5329 45.3453 10.8446 45.84 11.2549C46.3347 11.6611 46.7329 12.1619 47.0346 12.7571C47.3362 13.3524 47.5192 14.0341 47.5836 14.8024Z" fill="white"/>
<defs>
<linearGradient id="paint0_linear_73_5301" x1="29.1176" y1="3.83823" x2="3.57353" y2="29.3824" gradientUnits="userSpaceOnUse">
<stop stop-color="#18C8FF"/>
<stop offset="1" stop-color="#933FFE"/>
</linearGradient>
</defs>
</svg>
