<svg width="36" height="30" viewBox="0 0 36 30" fill="none" xmlns="http://www.w3.org/2000/svg">
<path d="M26.9805 0C22.7143 7.10625 20.3571 10.65 17.9805 10.65C15.6039 10.65 13.2468 7.10625 9 0C13.2468 7.10625 15.2727 10.8563 14.0844 12.825C12.8961 14.7938 8.51299 15 0 15C8.82467 15 13.2078 15.2062 14.2013 17.3812C15.1364 19.4062 13.1104 23.1375 9 30C13.2662 22.8937 15.6234 19.35 18 19.35C20.3766 19.35 22.7338 22.8937 27 30C22.4805 22.4438 20.4935 18.6937 22.1688 16.8187C23.6494 15.1687 28.013 15 36 15C27 15 22.6169 14.775 21.7403 12.4688C20.9416 10.4062 22.9675 6.69375 26.9805 0Z" fill="white"/>
</svg>
