<svg width="69" height="75" viewBox="0 0 69 75" fill="none" xmlns="http://www.w3.org/2000/svg">
<g filter="url(#filter0_b_73_4921)">
<path d="M2 41.9137C2 23.736 16.8223 9 35 9C53.1777 9 68 23.736 68 41.9137C68 60.0914 53.1777 74.8274 35 74.8274C16.8223 74.8274 2 60.0914 2 41.9137Z" fill="url(#paint0_radial_73_4921)"/>
<path d="M2.5 41.9137C2.5 24.0138 17.0967 9.5 35 9.5C52.9033 9.5 67.5 24.0138 67.5 41.9137C67.5 59.8136 52.9033 74.3274 35 74.3274C17.0967 74.3274 2.5 59.8136 2.5 41.9137Z" stroke="url(#paint1_radial_73_4921)"/>
<path d="M2.5 41.9137C2.5 24.0138 17.0967 9.5 35 9.5C52.9033 9.5 67.5 24.0138 67.5 41.9137C67.5 59.8136 52.9033 74.3274 35 74.3274C17.0967 74.3274 2.5 59.8136 2.5 41.9137Z" stroke="url(#paint2_radial_73_4921)"/>
<path d="M2.5 41.9137C2.5 24.0138 17.0967 9.5 35 9.5C52.9033 9.5 67.5 24.0138 67.5 41.9137C67.5 59.8136 52.9033 74.3274 35 74.3274C17.0967 74.3274 2.5 59.8136 2.5 41.9137Z" stroke="url(#paint3_radial_73_4921)"/>
</g>
<g filter="url(#filter1_f_73_4921)">
<ellipse cx="34.789" cy="26.7218" rx="20.9423" ry="13.5031" fill="url(#paint4_radial_73_4921)" fill-opacity="0.2"/>
</g>
<defs>
<filter id="filter0_b_73_4921" x="-3" y="4" width="76" height="75.8281" filterUnits="userSpaceOnUse" color-interpolation-filters="sRGB">
<feFlood flood-opacity="0" result="BackgroundImageFix"/>
<feGaussianBlur in="BackgroundImageFix" stdDeviation="2.5"/>
<feComposite in2="SourceAlpha" operator="in" result="effect1_backgroundBlur_73_4921"/>
<feBlend mode="normal" in="SourceGraphic" in2="effect1_backgroundBlur_73_4921" result="shape"/>
</filter>
<filter id="filter1_f_73_4921" x="0.892145" y="0.264215" width="67.7938" height="52.9149" filterUnits="userSpaceOnUse" color-interpolation-filters="sRGB">
<feFlood flood-opacity="0" result="BackgroundImageFix"/>
<feBlend mode="normal" in="SourceGraphic" in2="BackgroundImageFix" result="shape"/>
<feGaussianBlur stdDeviation="6.47727" result="effect1_foregroundBlur_73_4921"/>
</filter>
<radialGradient id="paint0_radial_73_4921" cx="0" cy="0" r="1" gradientUnits="userSpaceOnUse" gradientTransform="translate(7.52093 9) rotate(47.9449) scale(98.5303 71.5895)">
<stop stop-color="white" stop-opacity="0.36"/>
<stop offset="1" stop-color="white" stop-opacity="0"/>
</radialGradient>
<radialGradient id="paint1_radial_73_4921" cx="0" cy="0" r="1" gradientUnits="userSpaceOnUse" gradientTransform="translate(-33.1421 15.7343) rotate(35.0407) scale(76.0247 44.8703)">
<stop stop-color="white"/>
<stop offset="1" stop-color="white" stop-opacity="0.06"/>
</radialGradient>
<radialGradient id="paint2_radial_73_4921" cx="0" cy="0" r="1" gradientUnits="userSpaceOnUse" gradientTransform="translate(87.3223 53.0556) rotate(161.385) scale(55.1453 37.2722)">
<stop stop-color="#8470FF"/>
<stop offset="1" stop-color="#865CFF" stop-opacity="0"/>
</radialGradient>
<radialGradient id="paint3_radial_73_4921" cx="0" cy="0" r="1" gradientUnits="userSpaceOnUse" gradientTransform="translate(35.7186 -6.04464) rotate(47.2149) scale(36.8305 26.4725)">
<stop/>
<stop offset="1" stop-color="white" stop-opacity="0"/>
</radialGradient>
<radialGradient id="paint4_radial_73_4921" cx="0" cy="0" r="1" gradientUnits="userSpaceOnUse" gradientTransform="translate(34.789 13.2188) rotate(90) scale(20.0117 31.0406)">
<stop stop-color="white"/>
<stop offset="1" stop-color="white" stop-opacity="0"/>
</radialGradient>
</defs>
</svg>
