<svg width="9" height="15" viewBox="0 0 9 15" fill="none" xmlns="http://www.w3.org/2000/svg">
<path d="M7.50405 8.44198L7.92005 5.72915H5.31644V3.96236C5.29833 3.75976 5.32599 3.55568 5.39737 3.36521C5.46876 3.17474 5.58204 3.00275 5.72885 2.86196C5.87565 2.72117 6.05223 2.61518 6.24551 2.55182C6.4388 2.48846 6.64386 2.46935 6.84552 2.49592H8.02927V0.192663C7.33438 0.0804759 6.63222 0.0192778 5.9284 0.00955942C5.44412 -0.0273141 4.95766 0.0427727 4.50349 0.214853C4.04932 0.386934 3.63856 0.656796 3.30031 1.00532C2.96205 1.35384 2.70459 1.77249 2.54617 2.2316C2.38774 2.69071 2.33223 3.17905 2.38357 3.662V5.72915H0V8.44198H2.38357V15H5.31644V8.44198H7.50405Z" fill="url(#paint0_linear_73_2813)"/>
<defs>
<linearGradient id="paint0_linear_73_2813" x1="6.49426" y1="1.59926" x2="-2.36249" y2="6.34015" gradientUnits="userSpaceOnUse">
<stop stop-color="#18C8FF"/>
<stop offset="1" stop-color="#933FFE"/>
</linearGradient>
</defs>
</svg>
