<svg width="80" height="80" viewBox="0 0 80 80" fill="none" xmlns="http://www.w3.org/2000/svg">
<g filter="url(#filter0_b_73_2551)">
<path d="M0 40.0009C0 17.9673 17.9664 0.105469 40 0.105469C62.0336 0.105469 80 17.9673 80 40.0009C80 62.0345 62.0336 79.8963 40 79.8963C17.9664 79.8963 0 62.0345 0 40.0009Z" fill="url(#paint0_radial_73_2551)"/>
<path d="M0.5 40.0009C0.5 18.2451 18.2408 0.605469 40 0.605469C61.7592 0.605469 79.5 18.2451 79.5 40.0009C79.5 61.7566 61.7592 79.3963 40 79.3963C18.2408 79.3963 0.5 61.7566 0.5 40.0009Z" stroke="url(#paint1_radial_73_2551)"/>
<path d="M0.5 40.0009C0.5 18.2451 18.2408 0.605469 40 0.605469C61.7592 0.605469 79.5 18.2451 79.5 40.0009C79.5 61.7566 61.7592 79.3963 40 79.3963C18.2408 79.3963 0.5 61.7566 0.5 40.0009Z" stroke="url(#paint2_radial_73_2551)"/>
<path d="M0.5 40.0009C0.5 18.2451 18.2408 0.605469 40 0.605469C61.7592 0.605469 79.5 18.2451 79.5 40.0009C79.5 61.7566 61.7592 79.3963 40 79.3963C18.2408 79.3963 0.5 61.7566 0.5 40.0009Z" stroke="url(#paint3_radial_73_2551)"/>
</g>
<defs>
<filter id="filter0_b_73_2551" x="-5" y="-4.89453" width="90" height="89.791" filterUnits="userSpaceOnUse" color-interpolation-filters="sRGB">
<feFlood flood-opacity="0" result="BackgroundImageFix"/>
<feGaussianBlur in="BackgroundImageFix" stdDeviation="2.5"/>
<feComposite in2="SourceAlpha" operator="in" result="effect1_backgroundBlur_73_2551"/>
<feBlend mode="normal" in="SourceGraphic" in2="effect1_backgroundBlur_73_2551" result="shape"/>
</filter>
<radialGradient id="paint0_radial_73_2551" cx="0" cy="0" r="1" gradientUnits="userSpaceOnUse" gradientTransform="translate(6.69204 0.105469) rotate(47.9449) scale(119.431 86.7751)">
<stop stop-color="white" stop-opacity="0.36"/>
<stop offset="1" stop-color="white" stop-opacity="0"/>
</radialGradient>
<radialGradient id="paint1_radial_73_2551" cx="0" cy="0" r="1" gradientUnits="userSpaceOnUse" gradientTransform="translate(-42.5965 8.26827) rotate(35.0407) scale(92.1512 54.3882)">
<stop stop-color="white"/>
<stop offset="1" stop-color="white" stop-opacity="0.06"/>
</radialGradient>
<radialGradient id="paint2_radial_73_2551" cx="0" cy="0" r="1" gradientUnits="userSpaceOnUse" gradientTransform="translate(103.421 53.5062) rotate(161.385) scale(66.8428 45.1784)">
<stop stop-color="#8470FF"/>
<stop offset="1" stop-color="#865CFF" stop-opacity="0"/>
</radialGradient>
<radialGradient id="paint3_radial_73_2551" cx="0" cy="0" r="1" gradientUnits="userSpaceOnUse" gradientTransform="translate(40.871 -18.1305) rotate(47.2149) scale(44.643 32.0879)">
<stop/>
<stop offset="1" stop-color="white" stop-opacity="0"/>
</radialGradient>
</defs>
</svg>
