<svg width="15" height="14" viewBox="0 0 15 14" fill="none" xmlns="http://www.w3.org/2000/svg">
<path d="M13.4601 3.94473C13.4698 4.07814 13.4698 4.21155 13.4698 4.34496C13.4777 5.49589 13.2568 6.63691 12.82 7.70175C12.3832 8.76659 11.7392 9.73404 10.9254 10.5479C10.1115 11.3617 9.14409 12.0057 8.07925 12.4425C7.0144 12.8793 5.87338 13.1002 4.72246 13.0923C3.04784 13.0957 1.40791 12.6151 0 11.7083C0.246571 11.7357 0.49453 11.7485 0.742606 11.7469C2.12652 11.7506 3.47133 11.288 4.56012 10.4337C3.91869 10.4224 3.29679 10.2111 2.78126 9.8293C2.26573 9.44748 1.88231 8.9142 1.68453 8.30392C1.87646 8.33452 2.07043 8.35064 2.26479 8.35214C2.53599 8.35097 2.80598 8.31587 3.06847 8.24767C2.37317 8.10558 1.74842 7.72737 1.30018 7.17718C0.851941 6.62699 0.60781 5.93869 0.609194 5.22902V5.19205C1.03538 5.43004 1.5118 5.56388 1.99957 5.58264C1.34657 5.1475 0.884307 4.4795 0.707162 3.71506C0.530016 2.95062 0.651354 2.14738 1.0464 1.46938C1.8189 2.41944 2.78244 3.19657 3.87454 3.75037C4.96665 4.30418 6.16294 4.6223 7.38588 4.68412C7.33676 4.45263 7.31144 4.21673 7.31033 3.98009C7.31158 3.36358 7.49792 2.76166 7.84523 2.25229C8.19253 1.74291 8.68479 1.34957 9.25824 1.1232C9.83169 0.896838 10.4599 0.847885 11.0615 0.982687C11.6631 1.11749 12.2103 1.42983 12.6323 1.87925C13.3209 1.74661 13.9812 1.49534 14.5837 1.13665C14.3543 1.84708 13.8737 2.44945 13.2319 2.83082C13.842 2.75908 14.438 2.59655 15 2.34861C14.5803 2.96358 14.0597 3.50322 13.4601 3.94473Z" fill="url(#paint0_linear_73_2802)"/>
<defs>
<linearGradient id="paint0_linear_73_2802" x1="12.1324" y1="2.20726" x2="3.67042" y2="12.6247" gradientUnits="userSpaceOnUse">
<stop stop-color="#18C8FF"/>
<stop offset="1" stop-color="#933FFE"/>
</linearGradient>
</defs>
</svg>
