<svg width="15" height="16" viewBox="0 0 15 16" fill="none" xmlns="http://www.w3.org/2000/svg">
<path d="M3.36974 15.4928H0.262215V5.49032H3.36974V15.4928ZM1.81504 4.12294C1.45762 4.12442 1.10779 4.0199 0.809756 3.82259C0.511727 3.62529 0.278881 3.34406 0.140651 3.01445C0.00242115 2.68484 -0.0349873 2.32164 0.0331541 1.97078C0.101296 1.61991 0.271928 1.29712 0.523483 1.04321C0.775038 0.789298 1.09622 0.615665 1.44644 0.544256C1.79665 0.472847 2.16018 0.506868 2.49107 0.64202C2.82195 0.777171 3.10534 1.00739 3.30541 1.30356C3.50549 1.59974 3.61326 1.94859 3.61512 2.306C3.61612 2.78545 3.42739 3.24582 3.09013 3.58659C2.75287 3.92737 2.29447 4.12085 1.81504 4.12481V4.12294ZM15 15.4928H11.8962V10.6227C11.8962 9.46136 11.8719 7.97409 10.2816 7.97409C8.6913 7.97409 8.4197 9.23471 8.4197 10.5403V15.4928H5.31592V5.49032H8.2942V6.85583H8.33728C8.6351 6.34573 9.06573 5.92599 9.58329 5.64131C10.1008 5.35664 10.6859 5.21771 11.2762 5.23932C14.4231 5.23932 15 7.30913 15 9.99895V15.4928Z" fill="url(#paint0_linear_73_2797)"/>
<defs>
<linearGradient id="paint0_linear_73_2797" x1="12.1324" y1="2.10548" x2="1.4996" y2="12.7489" gradientUnits="userSpaceOnUse">
<stop stop-color="#18C8FF"/>
<stop offset="1" stop-color="#933FFE"/>
</linearGradient>
</defs>
</svg>
