<svg width="24" height="17" viewBox="0 0 24 17" fill="none" xmlns="http://www.w3.org/2000/svg">
<path d="M1.33333 16.75H22.6667C23.4 16.75 24 16.1313 24 15.375C24 14.6187 23.4 14 22.6667 14H1.33333C0.6 14 0 14.6187 0 15.375C0 16.1313 0.6 16.75 1.33333 16.75ZM1.33333 9.875H22.6667C23.4 9.875 24 9.25625 24 8.5C24 7.74375 23.4 7.125 22.6667 7.125H1.33333C0.6 7.125 0 7.74375 0 8.5C0 9.25625 0.6 9.875 1.33333 9.875ZM0 1.625C0 2.38125 0.6 3 1.33333 3H22.6667C23.4 3 24 2.38125 24 1.625C24 0.86875 23.4 0.25 22.6667 0.25H1.33333C0.6 0.25 0 0.86875 0 1.625Z" fill="white"/>
</svg>
