<svg width="15" height="16" viewBox="0 0 15 16" fill="none" xmlns="http://www.w3.org/2000/svg">
<path d="M7.50941 4.15743C6.74863 4.15631 6.00461 4.3809 5.3715 4.80276C4.73839 5.22462 4.24464 5.82479 3.95273 6.52735C3.66082 7.2299 3.58387 8.00325 3.73161 8.74956C3.87935 9.49586 4.24514 10.1816 4.7827 10.7199C5.32026 11.2583 6.00544 11.6251 6.75152 11.7739C7.49761 11.9227 8.27107 11.8469 8.97405 11.556C9.67703 11.2651 10.2779 10.7723 10.7007 10.1398C11.1235 9.50729 11.3492 8.7636 11.3492 8.00281C11.3499 7.4981 11.2511 6.99818 11.0585 6.53167C10.8659 6.06516 10.5832 5.64121 10.2265 5.28406C9.8699 4.92691 9.44635 4.64357 8.98013 4.45025C8.5139 4.25693 8.01413 4.15743 7.50941 4.15743ZM7.50941 10.502C7.01488 10.5031 6.53113 10.3575 6.11939 10.0836C5.70766 9.80963 5.38645 9.4197 5.19643 8.96313C5.00641 8.50655 4.95611 8.00387 5.05191 7.5187C5.14771 7.03353 5.38529 6.58768 5.73458 6.2376C6.08388 5.88751 6.52919 5.64893 7.01414 5.55204C7.4991 5.45515 8.00189 5.50431 8.45889 5.6933C8.91589 5.8823 9.30655 6.20262 9.58142 6.61374C9.85629 7.02485 10.003 7.50827 10.003 8.00281C10.0015 8.66422 9.73851 9.2982 9.27136 9.76641C8.8042 10.2346 8.17081 10.4991 7.50941 10.502ZM12.4029 3.99431C12.4029 4.17156 12.3503 4.34483 12.2518 4.49221C12.1533 4.63959 12.0134 4.75446 11.8496 4.82229C11.6859 4.89012 11.5057 4.90787 11.3318 4.87329C11.158 4.83871 10.9983 4.75335 10.873 4.62802C10.7476 4.50268 10.6623 4.343 10.6277 4.16915C10.5931 3.99531 10.6109 3.81511 10.6787 3.65135C10.7465 3.4876 10.8614 3.34763 11.0088 3.24916C11.1561 3.15068 11.3294 3.09812 11.5067 3.09812C11.6244 3.09787 11.7411 3.12088 11.8499 3.16583C11.9588 3.21078 12.0577 3.27679 12.1409 3.36006C12.2242 3.44333 12.2902 3.54222 12.3351 3.65106C12.3801 3.75991 12.4031 3.87655 12.4029 3.99431ZM14.9489 4.90551C14.9736 3.73966 14.5385 2.61093 13.7378 1.7632C12.8884 0.965069 11.7608 0.530435 10.5955 0.552028C9.35805 0.482657 5.64578 0.482657 4.40836 0.552028C3.24229 0.529343 2.11368 0.964095 1.26418 1.7632C0.464667 2.6117 0.0298081 3.73991 0.0530046 4.90551C-0.0163661 6.14293 -0.0163661 9.8552 0.0530046 11.0926C0.0278988 12.2591 0.462992 13.3886 1.26418 14.2368C2.11386 15.0344 3.24127 15.469 4.40648 15.448C5.64391 15.5173 9.35617 15.5173 10.5936 15.448C11.7594 15.4726 12.8882 15.0375 13.7359 14.2368C14.534 13.3874 14.9687 12.2598 14.9471 11.0945C15.0164 9.85707 15.0164 6.14855 14.9471 4.90738L14.9489 4.90551ZM13.3497 12.4313C13.2224 12.7537 13.0302 13.0466 12.7851 13.2917C12.54 13.5368 12.2472 13.7289 11.9248 13.8562C10.4728 14.1518 8.98774 14.2508 7.50941 14.1506C6.02889 14.2473 4.54208 14.1457 3.08844 13.8487C2.76602 13.7214 2.47318 13.5293 2.22807 13.2842C1.98296 13.0391 1.79081 12.7462 1.66353 12.4238C1.36244 10.9707 1.25839 9.48368 1.35417 8.00281C1.25747 6.52229 1.35898 5.03548 1.65603 3.58184C1.78331 3.25942 1.97546 2.96657 2.22057 2.72147C2.46568 2.47636 2.75852 2.28421 3.08094 2.15693C4.53673 1.85705 6.02631 1.75489 7.50941 1.8532C8.98994 1.75649 10.4767 1.85801 11.9304 2.15505C12.2528 2.28233 12.5457 2.47448 12.7908 2.71959C13.0359 2.9647 13.228 3.25754 13.3553 3.57996C13.6539 5.0334 13.7554 6.52041 13.6572 8.00094C13.7545 9.48483 13.6511 10.9751 13.3497 12.4313Z" fill="url(#paint0_linear_73_2792)"/>
<defs>
<linearGradient id="paint0_linear_73_2792" x1="12.1318" y1="2.09926" x2="1.48843" y2="12.7413" gradientUnits="userSpaceOnUse">
<stop stop-color="#18C8FF"/>
<stop offset="1" stop-color="#933FFE"/>
</linearGradient>
</defs>
</svg>
