<svg width="42" height="34" viewBox="0 0 42 34" fill="none" xmlns="http://www.w3.org/2000/svg">
<path fill-rule="evenodd" clip-rule="evenodd" d="M27.2227 0.40625C29.9315 0.40625 32.2378 2.1381 33.0924 4.5544H14.7783C12.0279 4.5544 9.39015 5.64699 7.44533 7.59181C5.5005 9.53663 4.40791 12.1744 4.40791 14.9248V24.9425C3.19443 24.5132 2.1439 23.7182 1.401 22.667C0.65811 21.6158 0.259395 20.3601 0.259766 19.0729V6.62847C0.259766 4.97824 0.91532 3.39559 2.08221 2.2287C3.24911 1.0618 4.83175 0.40625 6.48199 0.40625H27.2227ZM35.519 8.70255H14.7783C13.128 8.70255 11.5454 9.3581 10.3785 10.525C9.21162 11.6919 8.55606 13.2745 8.55606 14.9248V27.3692C8.55606 29.0194 9.21162 30.6021 10.3785 31.769C11.5454 32.9359 13.128 33.5914 14.7783 33.5914H35.519C37.1693 33.5914 38.7519 32.9359 39.9188 31.769C41.0857 30.6021 41.7412 29.0194 41.7412 27.3692V14.9248C41.7412 13.2745 41.0857 11.6919 39.9188 10.525C38.7519 9.3581 37.1693 8.70255 35.519 8.70255ZM29.2968 21.147C29.2968 22.2471 28.8598 23.3022 28.0818 24.0802C27.3039 24.8581 26.2488 25.2951 25.1487 25.2951C24.0485 25.2951 22.9934 24.8581 22.2155 24.0802C21.4375 23.3022 21.0005 22.2471 21.0005 21.147C21.0005 20.0468 21.4375 18.9917 22.2155 18.2138C22.9934 17.4359 24.0485 16.9988 25.1487 16.9988C26.2488 16.9988 27.3039 17.4359 28.0818 18.2138C28.8598 18.9917 29.2968 20.0468 29.2968 21.147Z" fill="url(#paint0_linear_66_1847)"/>
<defs>
<linearGradient id="paint0_linear_66_1847" x1="7.8215" y1="49.8383" x2="54.1838" y2="4.7111" gradientUnits="userSpaceOnUse">
<stop stop-color="#982DEC"/>
<stop offset="0.572917" stop-color="#DC8DF8"/>
<stop offset="0.895833" stop-color="#A9C4F3"/>
</linearGradient>
</defs>
</svg>
