<svg width="38" height="34" viewBox="0 0 38 34" fill="none" xmlns="http://www.w3.org/2000/svg">
<path d="M33.9337 7.66588V3.93255C33.9337 1.87362 32.2593 0.199219 30.2004 0.199219H5.93374C2.84627 0.199219 0.33374 2.71175 0.33374 5.79922V28.1992C0.33374 32.3078 3.68254 33.7992 5.93374 33.7992H33.9337C35.9927 33.7992 37.6671 32.1248 37.6671 30.0659V11.3992C37.6671 9.34028 35.9927 7.66588 33.9337 7.66588ZM30.2004 24.4659H26.4671V16.9992H30.2004V24.4659ZM5.93374 7.66588C5.45311 7.64439 4.9993 7.43833 4.66679 7.09061C4.33428 6.7429 4.14871 6.28033 4.14871 5.79922C4.14871 5.31811 4.33428 4.85554 4.66679 4.50783C4.9993 4.16011 5.45311 3.95405 5.93374 3.93255H30.2004V7.66588H5.93374Z" fill="url(#paint0_linear_66_1865)"/>
<defs>
<linearGradient id="paint0_linear_66_1865" x1="7.1393" y1="50.2492" x2="53.6103" y2="10.042" gradientUnits="userSpaceOnUse">
<stop stop-color="#982DEC"/>
<stop offset="0.572917" stop-color="#DC8DF8"/>
<stop offset="0.895833" stop-color="#A9C4F3"/>
</linearGradient>
</defs>
</svg>
